<svg xmlns="http://www.w3.org/2000/svg" viewBox="0 0 132 132"><defs><style>.cls-1{fill:#8be28f;}.cls-2{fill:none;stroke:#f90808;stroke-miterlimit:10;}</style></defs><title>aliexpress</title><g id="Layer_1" data-name="Layer 1"><circle class="cls-1" cx="66" cy="66" r="65.5"/><circle class="cls-2" cx="66" cy="66" r="65.5"/></g><g id="Layer_12" data-name="Layer 12"><path d="M658,320.75c-.81,6.34-2.36,12.44-2.88,18.87-.53,6.64-.57,13.47-.87,20.13-.09,1.93,2.91,1.93,3,0,.3-6.67.34-13.48.87-20.13.52-6.43,2.07-12.52,2.88-18.87.24-1.91-2.76-1.89-3,0Z" transform="translate(-630 -293)"/><path d="M658.45,320c-1,2.33.14,4.38.93,6.68a77.26,77.26,0,0,0,4.2,10.53c3.36,6.56,6.09,13.78,9.87,20.06,1,1.65,3.6.14,2.6-1.52-2.95-4.87-4.77-10.47-7.41-15.52a93.24,93.24,0,0,1-5.09-10.68c-.53-1.45-3.17-6.49-2.5-8,.75-1.76-1.84-3.29-2.6-1.52Z" transform="translate(-630 -293)"/><path d="M656,349c5.09-.27,9.54-2.6,14.5-3.25,1.89-.25,1.91-3.25,0-3-4.94.64-9.46,3-14.5,3.25-1.92.1-1.93,3.1,0,3Z" transform="translate(-630 -293)"/><path d="M671,318.76c3.7,6.63,5.22,13.37,6.91,20.64.66,2.87,1.5,5.73,1.92,8.66.37,2.62.05,5,1.17,7.45.81,1.75,3.4.23,2.6-1.52-1-2.25-.68-5.66-1.16-8.13-.56-2.94-1.29-5.83-1.91-8.75-1.48-6.95-3.45-13.62-6.93-19.87-.95-1.68-3.54-.17-2.6,1.52Z" transform="translate(-630 -293)"/><path d="M682.5,355.75c2.73-.21,5.51-1.65,8.17-2.36a61,61,0,0,0,9.09-2.84c1.76-.79.23-3.38-1.52-2.6a55,55,0,0,1-8.37,2.55c-2.28.61-5.07,2.08-7.37,2.25-1.91.14-1.93,3.15,0,3Z" transform="translate(-630 -293)"/><path d="M695.25,312.25c.28,6.19,2.07,12.46,4.23,18.25,1.14,3.07,2.62,6,3.74,9,1,2.65,1.51,5.53,2.58,8.12.73,1.76,3.64,1,2.9-.8-2.09-5-3.68-10.47-5.72-15.58-2.36-5.94-4.44-12.6-4.73-19-.09-1.92-3.09-1.93-3,0Z" transform="translate(-630 -293)"/><path d="M695,306.75a1.5,1.5,0,0,0,0-3,1.5,1.5,0,0,0,0,3Z" transform="translate(-630 -293)"/><path d="M652.5,371.75c-6.6.54-8.82,10.64-6.84,15.88,1.79,4.73,9.06,8.34,12.64,3.38,1.13-1.57-1.48-3.07-2.6-1.52-1,1.34-3.48.84-4.68.17a6.59,6.59,0,0,1-3-5.79c0-2.52,1.09-8.84,4.51-9.12,1.91-.15,1.93-3.16,0-3Z" transform="translate(-630 -293)"/><path d="M647.25,386a15.39,15.39,0,0,0,3.65-.23c1.17-.27,2.3-.65,3.5-.82,1.9-.29,1.09-3.18-.8-2.9-1,.16-2,.45-3,.71a12.21,12.21,0,0,1-3.31.24,1.5,1.5,0,0,0,0,3Z" transform="translate(-630 -293)"/><path d="M657.35,373.7c.58.14.83.83,1.21,1.22a23.45,23.45,0,0,0,2.09,1.59,25.31,25.31,0,0,1,3.65,3.81c2,2.33,4.43,4.2,6.39,6.49,1.26,1.47,3.37-.66,2.12-2.12-1-1.2-2.38-2.16-3.51-3.27-1.42-1.41-2.58-3-3.9-4.54a25,25,0,0,0-3.63-3.27c-1.23-.94-2.06-2.42-3.62-2.81-1.87-.46-2.67,2.43-.8,2.9Z" transform="translate(-630 -293)"/><path d="M666.55,369.65c.2,1.24-1,2.84-1.5,4a42.3,42.3,0,0,0-1.69,5c-.76,2.91-1.51,5.84-2.31,8.75a1.51,1.51,0,0,0,2.9.8c1-3.77,1.72-7.86,3.16-11.45.94-2.36,2.75-5.23,2.34-7.85-.3-1.9-3.19-1.09-2.9.8Z" transform="translate(-630 -293)"/><path d="M672.75,367c.11,3.81,1.82,7.27,2.82,10.9a99.3,99.3,0,0,1,2.68,13.85c.24,1.89,3.24,1.91,3,0-.5-4-1.25-7.72-2.08-11.63-.92-4.35-3.29-8.68-3.42-13.12-.06-1.93-3.06-1.93-3,0Z" transform="translate(-630 -293)"/><path d="M675.56,367.56c2.4-2,9-1.79,11.25.59,4.36,4.63-5.19,8.05-8.46,8.65-1.89.36-1.09,3.25.8,2.9,5.54-1,15.07-5.41,10.79-12.35a8.33,8.33,0,0,0-7.24-3.85c-3.34,0-6.56-.36-9.26,1.94-1.47,1.25.66,3.37,2.12,2.12Z" transform="translate(-630 -293)"/><path d="M688.8,361.15c.74,5.33,3.46,10.17,3.7,15.6.08,1.92,3.09,1.93,3,0-.25-5.72-3-10.8-3.8-16.4-.27-1.9-3.16-1.09-2.9.8Z" transform="translate(-630 -293)"/><path d="M690.75,361.5c1.23-.09,2.52-.53,3.75-.5a4.17,4.17,0,0,1,3.19,2.12c.57,1.09.57,1.89-.52,2.47-1.34.71-2.81,1.21-4.18,1.86-1.74.84-.22,3.43,1.52,2.6s4.71-1.45,5.9-3.16a4.92,4.92,0,0,0,.19-4.57,7.09,7.09,0,0,0-3.81-3.78c-2.07-.9-3.92-.2-6,0-1.91.14-1.93,3.14,0,3Z" transform="translate(-630 -293)"/><path d="M692.85,370c1.88.59,3.47,2.29,5.21,3.2a35.45,35.45,0,0,1,5.88,3.41c1.49,1.21,3.62-.9,2.12-2.12a38.28,38.28,0,0,0-6.49-3.88c-2-1.06-3.73-2.81-5.92-3.51-1.85-.58-2.64,2.32-.8,2.9Z" transform="translate(-630 -293)"/><path d="M712,353.5c-6.82-.12-10.22,8.05-7.57,13.78,2.43,5.25,11.09,6.49,15.38,3,1.5-1.21-.63-3.32-2.12-2.12-2.81,2.26-9.47.87-10.7-2.55-1.33-3.71.5-9.22,5-9.14,1.93,0,1.93-3,0-3Z" transform="translate(-630 -293)"/><path d="M707.56,367.06c.3-.27.9-.31,1.27-.48a8.16,8.16,0,0,0,1.4-.94,6.67,6.67,0,0,1,3.17-1.19c1.9-.34,1.09-3.23-.8-2.9a8.78,8.78,0,0,0-3.89,1.49,6,6,0,0,1-1.54,1,4.7,4.7,0,0,0-1.73.94c-1.44,1.29.68,3.4,2.12,2.12Z" transform="translate(-630 -293)"/><path d="M726.75,346.5c-4.45.34-11.72,4.49-8.7,9.95,1.41,2.54,4.3,2.43,6.74,2.13,2.16-.27,6.86-.47,7,2.58.14,2.68-4.76,3.94-6.57,4.79s-.22,3.42,1.52,2.6c2.58-1.23,6.93-2.31,7.93-5.38a6.71,6.71,0,0,0-1.75-6.22c-2-2-5.39-1.72-8-1.46-2.29.24-6-.22-3.61-3.18a9.28,9.28,0,0,1,5.4-2.81c1.91-.14,1.93-3.15,0-3Z" transform="translate(-630 -293)"/><path d="M742.25,341.25c-3,.05-6.6.48-8.64,3a5.82,5.82,0,0,0-.18,7.2c2.41,2.86,6.14.87,9.16.75,1.17-.05,3.16,0,4,1,1.35,1.65-.05,3.29-1.43,4.1a16.31,16.31,0,0,1-5.14,2c-1.9.2-1.92,3.2,0,3,5-.52,12.31-4.14,9.33-10.2-1.4-2.83-5.29-3.2-8.12-2.79-1.53.23-7.75,1.63-5.39-2.77,1.14-2.11,4.33-2.2,6.43-2.24,1.93,0,1.93-3,0-3Z" transform="translate(-630 -293)"/></g></svg>