<svg xmlns="http://www.w3.org/2000/svg" viewBox="0 0 132 132"><defs><style>.cls-1{fill:#8be28f;}.cls-2,.cls-4,.cls-5{fill:none;stroke-miterlimit:10;}.cls-2{stroke:#f90808;}.cls-3{fill:#f7f7f7;}.cls-4,.cls-5{stroke:#000;}.cls-5{stroke-width:0.5px;}</style></defs><title>Baby</title><g id="Layer_1" data-name="Layer 1"><circle class="cls-1" cx="66" cy="66" r="65.5"/><circle class="cls-2" cx="66" cy="66" r="65.5"/></g><g id="Layer_3" data-name="Layer 3"><path class="cls-3" d="M687.5,329.5l1,24h-17S665.5,334.5,687.5,329.5Z" transform="translate(-630 -293)"/><path class="cls-4" d="M671.5,353.5s-6-19,16-24l1,24Z" transform="translate(-630 -293)"/><path class="cls-3" d="M671.5,353.5h47c0,22-23,23-23,23C671.5,376.5,671.5,353.5,671.5,353.5Z" transform="translate(-630 -293)"/><path class="cls-4" d="M671.5,353.5s0,23,24,23c0,0,23-1,23-23Z" transform="translate(-630 -293)"/><path class="cls-4" d="M718.5,353.5s-2-13,8-10" transform="translate(-630 -293)"/><circle class="cls-3" cx="51" cy="87" r="4.5"/><circle class="cls-4" cx="51" cy="87" r="4.5"/><circle class="cls-3" cx="78" cy="87" r="4.5"/><circle class="cls-4" cx="78" cy="87" r="4.5"/><circle class="cls-3" cx="70.5" cy="51.5" r="4"/><circle class="cls-5" cx="70.5" cy="51.5" r="4"/><path class="cls-3" d="M700.5,348.5s6-1,4,5h-8S694.5,347.5,700.5,348.5Z" transform="translate(-630 -293)"/><path class="cls-5" d="M696.5,353.5s-2-6,4-5c0,0,6-1,4,5Z" transform="translate(-630 -293)"/></g></svg>