<svg xmlns="http://www.w3.org/2000/svg" viewBox="0 0 132 132"><defs><style>.cls-1{fill:#8be28f;}.cls-2,.cls-4,.cls-6{fill:none;}.cls-2{stroke:#f90808;stroke-miterlimit:10;}.cls-3{fill:#f9f7f7;}.cls-4{stroke:#000;}.cls-4,.cls-6{stroke-linecap:round;stroke-linejoin:round;}.cls-5{fill:#020202;}.cls-6{stroke:#020202;}</style></defs><title>box</title><g id="Layer_1" data-name="Layer 1"><circle class="cls-1" cx="66" cy="66" r="65.5"/><circle class="cls-2" cx="66" cy="66" r="65.5"/></g><g id="Layer_9" data-name="Layer 9"><polygon class="cls-3" points="53.5 41.5 56.5 54.5 33.5 74.5 24.5 62.5 53.5 41.5"/><polygon class="cls-4" points="24.5 62.5 53.5 41.5 56.5 54.5 33.5 74.5 24.5 62.5"/><polygon class="cls-3" points="59.5 84.5 59.5 113.5 33.5 103.5 33.5 74.5 59.5 84.5"/><polygon class="cls-4" points="33.5 74.5 33.5 103.5 59.5 113.5 59.5 84.5 33.5 74.5"/><polygon class="cls-5" points="81.5 63.5 58.2 84 33.5 74.5 56.5 54.5 81.5 63.5"/><polygon class="cls-3" points="92.5 61.5 82.5 71.5 70.5 83.5 60.55 83.5 71.27 73.27 82.5 63.5 92.5 61.5"/><polygon class="cls-3" points="82.5 71.5 82.5 89.5 59.5 113.5 59.5 84.5 60.55 83.5 70.5 83.5 82.5 71.5"/><polygon class="cls-3" points="71.27 73.27 60.55 83.5 59.5 83.5 71.27 73.27"/><polyline class="cls-4" points="82.5 71.5 92.5 61.5 82.5 63.5 71.27 73.27 59.5 83.5 60.55 83.5 70.5 83.5 82.5 71.5 82.5 89.5 59.5 113.5 59.5 84.5 60.55 83.5 71.27 73.27 81.5 63.5 56.5 54.5 33.5 74.5 58.2 84 81.5 63.5"/><path class="cls-3" d="M699.9,301.51c2.59,3.06.7,7.75.6,8a50.13,50.13,0,0,0-3,6,23.56,23.56,0,0,0-2,6c-.07.5-.13,1.16,0,8,0,2.23.07,3.25-.56,3.61-.89.51-2.56-.59-3.44-1.61-2.17-2.5-1.19-6.3-1-7,1.94-7.61,3.65-11.66,5-14,.4-.7,1.47-2.46.83-4a4.12,4.12,0,0,0-2.83-2,4.67,4.67,0,0,0-3.62.62,4.15,4.15,0,0,0-1.38,1.38,2,2,0,0,1-2,1,2.17,2.17,0,0,1-1-3,8.25,8.25,0,0,1,2.56-3.71c3.48-2.82,8-1.43,8.44-1.29A6.9,6.9,0,0,1,699.9,301.51Z" transform="translate(-630 -293)"/><path class="cls-6" d="M685.5,304.5a2.17,2.17,0,0,0,1,3,2,2,0,0,0,2-1,4.15,4.15,0,0,1,1.38-1.38,4.67,4.67,0,0,1,3.62-.62,4.12,4.12,0,0,1,2.83,2c.64,1.52-.43,3.28-.83,4-1.35,2.34-3.06,6.39-5,14-.19.7-1.17,4.5,1,7,.88,1,2.55,2.12,3.44,1.61.63-.36.6-1.38.56-3.61-.13-6.86-.07-7.52,0-8a23.56,23.56,0,0,1,2-6,50.13,50.13,0,0,1,3-6c.1-.24,2-4.93-.6-8a6.9,6.9,0,0,0-3.4-2c-.42-.14-5-1.53-8.44,1.29A8.25,8.25,0,0,0,685.5,304.5Z" transform="translate(-630 -293)"/><circle class="cls-3" cx="64.5" cy="45.5" r="3"/><circle class="cls-6" cx="64.5" cy="45.5" r="3"/></g></svg>