<svg xmlns="http://www.w3.org/2000/svg" viewBox="0 0 132 132"><defs><style>.cls-1{fill:#8be28f;}.cls-2,.cls-4,.cls-7{fill:none;}.cls-2{stroke:#f90808;}.cls-2,.cls-4{stroke-miterlimit:10;}.cls-3{fill:#6df476;}.cls-4{stroke:#f9f7f7;}.cls-5{fill:#212183;}.cls-6{fill:#fbdf22;}.cls-7,.cls-8{stroke:#000;stroke-linecap:round;stroke-linejoin:round;}.cls-7{stroke-width:0.5px;}.cls-8{fill:#fff;}</style></defs><title>cart</title><g id="Layer_1" data-name="Layer 1"><circle class="cls-1" cx="66" cy="66" r="65.5"/><circle class="cls-2" cx="66" cy="66" r="65.5"/></g><g id="Layer_8" data-name="Layer 8"><rect class="cls-3" x="56.5" y="56.5" width="7" height="14"/><rect class="cls-4" x="56.5" y="56.5" width="7" height="14"/><rect class="cls-5" x="62.5" y="51.5" width="15" height="19"/><rect class="cls-4" x="62.5" y="51.5" width="15" height="19"/><rect class="cls-6" x="78.5" y="63.5" width="5" height="7"/><rect class="cls-4" x="78.5" y="63.5" width="5" height="7"/><path class="cls-7" d="M667.5,342.5s5,3,11-6l2,6,38-1-5,23h-28l-5-22h8l1,10h-7" transform="translate(-630 -293)"/><polyline class="cls-7" points="68.5 49.5 68.5 59.5 59.5 59.5 61.33 71.5"/><polyline class="cls-7" points="78.5 48.76 78.5 59.5 68.5 59.5 68.5 71.5"/><polyline class="cls-7" points="86.11 59.5 78.5 59.5 77.5 71.5"/><polyline class="cls-7" points="55.5 71.5 48.5 83.5 84.5 83.5"/><circle class="cls-8" cx="50.5" cy="84.5" r="4"/><circle class="cls-8" cx="84.5" cy="84.5" r="4"/></g></svg>