<?xml version="1.0" encoding="utf-8"?>
<!-- Generator: Adobe Illustrator 22.1.0, SVG Export Plug-In . SVG Version: 6.00 Build 0)  -->
<svg version="1.1" id="Layer_3" xmlns="http://www.w3.org/2000/svg" xmlns:xlink="http://www.w3.org/1999/xlink" x="0px" y="0px"
	 viewBox="0 0 1024 768" style="enable-background:new 0 0 1024 768;" xml:space="preserve">
<style type="text/css">
	.st0{fill:url(#SVGID_1_);}
	.st1{fill:none;stroke:#000000;stroke-width:0.5;stroke-linecap:round;stroke-linejoin:round;}
	.st2{fill:#ADD8BB;}
	.st3{fill:#0B0B0B;}
	.st4{fill:#E81C34;}
	.st5{fill:#EDD3DD;}
	.st6{fill:#AECEB8;}
</style>
<g id="XMLID_301_">
	<g>
		<radialGradient id="SVGID_1_" cx="495.325" cy="349.0303" r="187.6761" gradientUnits="userSpaceOnUse">
			<stop  offset="7.179487e-02" style="stop-color:#72C171"/>
			<stop  offset="0.4784" style="stop-color:#70C070;stop-opacity:0.781"/>
			<stop  offset="0.6249" style="stop-color:#69BD6E;stop-opacity:0.7021"/>
			<stop  offset="0.7293" style="stop-color:#5EB969;stop-opacity:0.6458"/>
			<stop  offset="0.8137" style="stop-color:#4DB263;stop-opacity:0.6004"/>
			<stop  offset="0.8859" style="stop-color:#37A95A;stop-opacity:0.5614"/>
			<stop  offset="0.9488" style="stop-color:#1C9E50;stop-opacity:0.5276"/>
			<stop  offset="1" style="stop-color:#009245;stop-opacity:0.5"/>
		</radialGradient>
		<path class="st0" d="M495.3,161.4C599,161.4,683,245.4,683,349s-84,187.7-187.7,187.7c-103.6,0-187.7-84-187.7-187.7
			S391.7,161.4,495.3,161.4z"/>
	</g>
	<g>
		<path class="st1" d="M683,349c0,103.6-84,187.7-187.7,187.7c-103.6,0-187.7-84-187.7-187.7s84-187.7,187.7-187.7
			C599,161.4,683,245.4,683,349z"/>
	</g>
</g>
<g id="XMLID_302_">
	<g>
		<path class="st2" d="M406.9,498.8c38.5,25.1,73,28.2,72.5,30.2c-0.5,1.8-32.6-1.4-66.1-17.2c-5.6-2.7-27-13-43.1-28.7
			c-4.3-4.2-12.2-12.7-20.2-22.7c-0.8-0.9-4.1-5-6.3-8.1c-12.7-17.7-17.8-34.3-22.3-48.8c-5.7-18.3-7.4-32.3-7.9-37.3
			c-1.8-17-1.2-33.7,0-33.7c1.2-0.1,2,16.6,5.7,35.9c8.5,43.4,29.3,73.3,34.5,80.4C360.5,457.9,377.7,479.8,406.9,498.8z"/>
	</g>
	<g>
	</g>
</g>
<g>
	<path class="st3" d="M454.9,236.9c1,19.1,1.6,38.2,1.9,57.3c0.2,9.5,0.3,19.1,0.4,28.6l0.1,28.6l-0.1,28.6
		c-0.1,9.5-0.2,19.1-0.4,28.6c-0.4,19.1-0.9,38.2-2,57.3c-1-19.1-1.6-38.2-2-57.3c-0.2-9.5-0.3-19.1-0.4-28.6l-0.1-28.6l0.1-28.6
		c0.1-9.5,0.2-19.1,0.4-28.6C453.3,275.1,453.9,256,454.9,236.9z"/>
</g>
<g>
	<path class="st4" d="M468.7,234.9c0,0,157.1,63.2,0,128.4"/>
	<path class="st3" d="M468.7,234.9c7.9,2.7,15.5,6.2,22.9,10c7.4,3.9,14.6,8.2,21.4,13.2c3.4,2.5,6.7,5.2,9.7,8.1
		c3.1,2.9,6,6,8.6,9.4c2.6,3.4,4.9,7.2,6.6,11.2c1.7,4,2.9,8.4,3,12.9c0.2,4.5-0.6,9-2.2,13.1c-1.5,4.2-3.7,8-6.4,11.4
		c-2.6,3.4-5.6,6.6-8.8,9.4l-1.2,1.1l-1.2,1c-0.8,0.7-1.6,1.4-2.5,2l-2.5,1.9l-1.3,0.9l-1.3,0.9c-6.9,4.8-14.3,8.8-21.8,12.4
		c-7.6,3.5-15.3,6.7-23.1,9.4c14.9-7.4,29.6-15.1,42.7-24.9l1.2-0.9l1.2-1l2.4-1.9l2.3-2l1.1-1l1.1-1.1c3-2.8,5.6-5.8,7.9-9
		c2.3-3.2,4.3-6.6,5.6-10.3c1.3-3.6,1.9-7.5,1.8-11.3c-0.1-3.8-1.1-7.6-2.5-11.2c-1.5-3.6-3.5-7-5.9-10.3
		c-4.7-6.5-10.7-12.1-17-17.3c-6.4-5.1-13.1-9.8-20.2-14.2C483.4,242.7,476.2,238.6,468.7,234.9z"/>
</g>
<g>
	<line class="st4" x1="467.7" y1="368.3" x2="531.9" y2="468.1"/>
	<path class="st3" d="M467.7,368.3c6.2,7.8,12,15.8,17.7,23.9c5.7,8.1,11.2,16.3,16.5,24.6c5.3,8.3,10.6,16.7,15.6,25.2
		c5,8.5,9.9,17.1,14.4,26c-6.2-7.8-12-15.8-17.7-23.9c-5.7-8.1-11.2-16.3-16.5-24.6c-5.3-8.3-10.6-16.7-15.6-25.2
		C477.1,385.8,472.2,377.2,467.7,368.3z"/>
</g>
<g id="XMLID_300_">
	<g>
		<path class="st5" d="M514.6,271.9c-0.5,0.6-30.6-30.7-40.9-24.4c-3.3,2-3.6,7.3-3.6,10.8c-0.2-6.7-0.5-13.4-0.7-20.1
			c7.3,3.9,17.5,9.9,28.7,18.7C508.8,265.1,514.8,271.7,514.6,271.9z"/>
	</g>
	<g>
	</g>
</g>
<path class="st6" d="M604.3,205.9c12.6,8.4,32.8,24.4,48.8,51c4.6,7.7,11.5,20.7,16.5,38.1c8.7,30.4,6.4,57,3.6,73.2
	c1.4-17,1.6-48.4-12.2-84C644.8,242.3,617.9,217,604.3,205.9z"/>
</svg>
