<svg xmlns="http://www.w3.org/2000/svg" viewBox="0 0 132 132"><defs><style>.cls-1{fill:#8be28f;}.cls-2,.cls-4,.cls-5{fill:none;}.cls-2{stroke:#f90808;}.cls-2,.cls-4{stroke-miterlimit:10;}.cls-3{fill:#fff;}.cls-4,.cls-5{stroke:#000;}.cls-5{stroke-linecap:round;stroke-linejoin:round;stroke-width:0.5px;}</style></defs><title>luggage</title><g id="Layer_1" data-name="Layer 1"><circle class="cls-1" cx="66" cy="66" r="65.5"/><circle class="cls-2" cx="66" cy="66" r="65.5"/></g><g id="Layer_7" data-name="Layer 7"><rect class="cls-3" x="44.5" y="37.5" width="43" height="55"/><rect class="cls-4" x="44.5" y="37.5" width="43" height="55"/><path class="cls-3" d="M699.64,330.5s0,0,0-.06a3.53,3.53,0,0,0-1-1.62,3.76,3.76,0,0,0-3-.84,3.43,3.43,0,0,0-3.57,2.52H688.5a8.25,8.25,0,0,1,1.68-2.52,8.86,8.86,0,0,1,5.46-2.52,8.05,8.05,0,0,1,4.21,1.26A8.15,8.15,0,0,1,703,330.5Z" transform="translate(-630 -293)"/><path class="cls-5" d="M691.86,330.5H688.5a8.25,8.25,0,0,1,1.68-2.52,8.86,8.86,0,0,1,5.46-2.52,8.05,8.05,0,0,1,4.21,1.26A8.15,8.15,0,0,1,703,330.5h-3.36s0,0,0-.06a3.53,3.53,0,0,0-1-1.62,3.76,3.76,0,0,0-3-.84,3.43,3.43,0,0,0-3.57,2.52h7.36" transform="translate(-630 -293)"/><ellipse class="cls-3" cx="49" cy="96" rx="1.5" ry="3.5"/><ellipse class="cls-4" cx="49" cy="96" rx="1.5" ry="3.5"/><ellipse class="cls-3" cx="83" cy="96" rx="1.5" ry="3.5"/><ellipse class="cls-4" cx="83" cy="96" rx="1.5" ry="3.5"/></g></svg>