<?xml version="1.0" encoding="utf-8"?>
<!-- Generator: Adobe Illustrator 22.1.0, SVG Export Plug-In . SVG Version: 6.00 Build 0)  -->
<svg version="1.1" xmlns="http://www.w3.org/2000/svg" xmlns:xlink="http://www.w3.org/1999/xlink" x="0px" y="0px"
	 viewBox="0 0 1366 768" style="enable-background:new 0 0 1366 768;" xml:space="preserve">
<style type="text/css">
	.st0{display:none;}
	.st1{fill:#8BE28F;}
	.st2{fill:none;stroke:#F90808;stroke-miterlimit:10;}
	.st3{fill:#FCFAFA;}
	.st4{fill:none;stroke:#000000;stroke-width:0.25;stroke-miterlimit:10;}
	.st5{fill:none;stroke:#000000;stroke-width:0.217;stroke-miterlimit:10;}
	.st6{fill:#FCFAFA;stroke:#000000;stroke-width:0.25;stroke-miterlimit:10;}
	.st7{fill:#FCFAFA;stroke:#000000;stroke-width:0.3758;stroke-miterlimit:10;}
	.st8{fill:#FCFAFA;stroke:#000000;stroke-width:0.217;stroke-miterlimit:10;}
	.st9{fill:#020202;}
	.st10{display:inline;fill:#FFFFFF;stroke:#000000;stroke-miterlimit:10;}
	.st11{display:inline;}
	.st12{fill:#F9F7F7;}
	.st13{fill:none;stroke:#000000;stroke-linecap:round;stroke-linejoin:round;}
	.st14{fill:none;stroke:#020202;stroke-linecap:round;stroke-linejoin:round;}
	.st15{fill:#6DF476;}
	.st16{fill:none;stroke:#EA2424;stroke-miterlimit:10;}
	.st17{fill:#212183;}
	.st18{fill:#FBDF22;}
	.st19{display:inline;fill:none;stroke:#000000;stroke-width:0.5;stroke-linecap:round;stroke-linejoin:round;}
	.st20{display:inline;fill:#FFFFFF;stroke:#000000;stroke-linecap:round;stroke-linejoin:round;}
	.st21{fill:#FFFFFF;}
	.st22{fill:none;stroke:#000000;stroke-miterlimit:10;}
	.st23{fill:none;stroke:#000000;stroke-width:0.5;stroke-linecap:round;stroke-linejoin:round;}
	.st24{fill:#F7F7F7;}
	.st25{display:inline;fill:none;stroke:#000000;stroke-miterlimit:10;}
	.st26{fill:none;stroke:#000000;stroke-width:0.5;stroke-miterlimit:10;}
</style>
<g id="Layer_2" class="st0">
	
		<image style="display:inline;overflow:visible;" width="500" height="500" xlink:href="../../../../../begin - Copy - Copy/images/svg/luggage.jpg"  transform="matrix(1 0 0 1 774 55)">
	</image>
</g>
<g id="Layer_4" class="st0">
	
		<image style="display:inline;overflow:visible;" width="500" height="500" xlink:href="../../../../../begin - Copy - Copy/images/svg/cart.jpg"  transform="matrix(1 0 0 1 630 34)">
	</image>
</g>
<g id="Layer_5" class="st0">
	
		<image style="display:inline;overflow:visible;" width="500" height="500" xlink:href="../../../../../begin - Copy - Copy/images/svg/box.jpg"  transform="matrix(1 0 0 1 600 -10)">
	</image>
</g>
<g id="Layer_6" class="st0">
	
		<image style="display:inline;overflow:visible;" width="500" height="500" xlink:href="../../../../../begin - Copy - Copy/images/svg/Cloud@72x-100.jpg"  transform="matrix(1 0 0 1 687 67)">
	</image>
</g>
<g id="Layer_1">
	<g id="XMLID_1_">
		<g>
			<circle class="st1" cx="696" cy="359" r="65.5"/>
		</g>
		<g>
			<circle class="st2" cx="696" cy="359" r="65.5"/>
		</g>
	</g>
</g>
<g id="Layer_11">
	<g id="XMLID_20_">
		<g>
			<path class="st3" d="M718,356c-14.3,4.1-22.5,3.7-27,3c-1.6-0.3-8.6-1.5-16-3c-2.1-0.4-3.9-0.8-5-1c-2.7-1.2-4.8-3.1-4.8-5
				c0.1-3.4,7.2-4.9,7.8-5c4-0.8,7.4,0.3,9,1c3.3,0.3,6.6,0.6,10,1c7.3,0.8,14.3,1.9,21,3c4-1.7,8-3.3,12-5c0.5-0.2,0.8-0.2,1,0
				c0.4,0.4-0.3,1.7-2,4c-1.2,1-2.6,2.3-4,4C719.2,354,718.5,355.1,718,356z"/>
		</g>
		<g>
			<path class="st4" d="M670,355c-2.7-1.2-4.8-3.1-4.8-5c0.1-3.4,7.2-4.9,7.8-5c4-0.8,7.4,0.3,9,1c3.3,0.3,6.6,0.6,10,1
				c7.3,0.8,14.3,1.9,21,3c4-1.7,8-3.3,12-5c0.5-0.2,0.8-0.2,1,0c0.4,0.4-0.3,1.7-2,4c-1.2,1-2.6,2.3-4,4c-0.8,1-1.5,2.1-2,3
				c-14.3,4.1-22.5,3.7-27,3c-1.6-0.3-8.6-1.5-16-3C672.9,355.6,671.1,355.2,670,355z"/>
		</g>
	</g>
	<g id="XMLID_21_">
		<g>
			<path class="st3" d="M705.7,345c-1.2,0.9-3.1,2-5.7,3c-2.7-0.3-5.3-0.7-8-1c5.6-2.5,11.2-4.9,16.8-7.4c0.6,0.3,0.8,0.6,0.9,0.8
				C710.3,341.8,707,344.1,705.7,345z"/>
		</g>
		<g>
			<path class="st5" d="M692,347c5.6-2.5,11.2-4.9,16.8-7.4c0.6,0.3,0.8,0.6,0.9,0.8c0.5,1.4-2.7,3.7-4,4.6c-1.2,0.9-3.1,2-5.7,3
				C697.3,347.7,694.7,347.3,692,347z"/>
		</g>
	</g>
	<g id="XMLID_22_">
		<g>
			<path class="st3" d="M697.8,356.9c0.9,1.6,2.1,4,3.3,7.1c0.9,2.4,4.9,13,2,15c-0.7,0.5-2,0.7-5-1c-5-7.4-9.9-14.9-14.8-22.3
				L697.8,356.9z"/>
		</g>
		<g>
			<path class="st4" d="M683.2,355.7c5,7.4,9.9,14.9,14.8,22.3c3,1.7,4.3,1.5,5,1c2.9-2-1.1-12.6-2-15c-1.2-3.1-2.4-5.5-3.3-7.1
				L683.2,355.7z"/>
		</g>
	</g>
	<path class="st6" d="M700,344"/>
	
		<ellipse transform="matrix(0.4518 -0.8921 0.8921 0.4518 60.6207 791.6569)" class="st7" cx="674.5" cy="346.5" rx="0.5" ry="1.5"/>
	<circle class="st8" cx="683.5" cy="349.5" r="0.5"/>
	<circle class="st8" cx="705.5" cy="353.5" r="0.5"/>
	<circle class="st8" cx="699.5" cy="352.5" r="0.5"/>
	<circle class="st8" cx="693.5" cy="351.5" r="0.5"/>
	<circle class="st8" cx="688.5" cy="350.5" r="0.5"/>
	<g id="XMLID_23_">
		<g>
			<path class="st3" d="M720,359l-5-6c0,0,4,0,4,1S720,359,720,359z"/>
		</g>
		<g>
			<path class="st5" d="M715,353l5,6c0,0-1-4-1-5S715,353,715,353z"/>
		</g>
	</g>
	<g id="XMLID_24_">
		<g>
			<polygon class="st3" points="715,348 715.6,349 714,349.5 714,347 			"/>
		</g>
		<g>
			<polygon class="st5" points="714,349.5 714,347 715,348 715.6,349 			"/>
		</g>
	</g>
	<g id="XMLID_25_">
		<g>
			<path class="st9" d="M665.8,348.5c0.5-0.5,1.3-0.2,1.4-0.1c1,0.3,1.8,1.5,1.8,2.6c0,1.6-1.3,2.6-1.4,2.6
				C667.6,353.6,663.6,351,665.8,348.5z"/>
		</g>
		<g>
			<path class="st4" d="M665.8,348.5c0.5-0.5,1.3-0.2,1.4-0.1c1,0.3,1.8,1.5,1.8,2.6c0,1.6-1.3,2.6-1.4,2.6
				C667.6,353.6,663.6,351,665.8,348.5z"/>
		</g>
	</g>
</g>
<g id="Layer_10" class="st0">
	<polygon class="st10" points="654.5,336.5 654.5,366.5 670.5,366.5 679.5,374.5 679.5,365.5 684.5,365.5 684.5,336.5 	"/>
	<path class="st10" d="M715.5,365.5h-11c-1.4-0.3-7.3-1.9-10.9-7.7c-3.4-5.4-3.4-12.4-0.1-18.3c1-1.3,6.9-8.3,17-9
		c7.6-0.6,13.2,2.8,15,4c1.6,1.5,5.5,5.5,7,12c1.8,7.9-1.1,14.2-2,16c0,0-4,9-16,14C714.5,376.5,718.5,368.5,715.5,365.5z"/>
	<g class="st11">
		<g>
			<path d="M707.6,345c0.1-3.3,4.7-7.1,7.6-3.9c2.2,2.4-0.5,5.7-2.1,7.3c-1,1-1.8,2.2-2.5,3.5c-0.8,1.6-0.2,1.9,0.1,3.9
				c0.1,0.9,1.6,1,1.5,0c-0.3-1.9-0.5-2.9,0.7-4.7c1.1-1.6,2.6-2.7,3.6-4.3c1.3-2.1,1.6-4.9-0.1-6.8c-3.9-4.2-9.9,0.3-10.2,5
				C706,346,707.5,346,707.6,345L707.6,345z"/>
		</g>
	</g>
	<g class="st11">
		<g>
			<path d="M711.5,361.6c1,0,1-1.5,0-1.5C710.5,360.1,710.5,361.6,711.5,361.6L711.5,361.6z"/>
		</g>
	</g>
	<g class="st11">
		<g>
			<path d="M657.7,342.9c1.1,0,2-0.2,3.1-0.3c1.2-0.2,1.9,0.2,3,0.3c1.1,0.2,3,0.3,4-0.2c0.4-0.2,0-0.9-0.4-0.6
				c-1.2,0.6-3.2,0-4.4-0.2c-1.8-0.3-3.5,0.4-5.3,0.3C657.2,342.2,657.2,342.9,657.7,342.9L657.7,342.9z"/>
		</g>
	</g>
	<g class="st11">
		<g>
			<path d="M672.4,342.8c1.8,0,3.6,0,5.4,0c0.5,0,1.1,0.1,1.6,0c0.2,0,1.2-0.7,1.3-0.6c0.4,0.3,0.9-0.2,0.5-0.5
				c-0.9-0.7-1.6,0.3-2.7,0.4c-2,0.2-4.2,0-6.2,0C671.9,342,671.9,342.8,672.4,342.8L672.4,342.8z"/>
		</g>
	</g>
	<g class="st11">
		<g>
			<path d="M660,348.5c3.3-0.1,6.5-0.1,9.8,0c1.6,0.1,3,0.1,4.5,0.3c1,0.1,0.5,0.4,1.6,0.2c0.5-0.1,0.3-0.8-0.2-0.7
				c-0.7,0.1-1.5-0.4-2.2-0.5c-1.4-0.3-2.9,0-4.3,0c-3.1-0.2-6.1-0.1-9.2,0C659.5,347.8,659.5,348.5,660,348.5L660,348.5z"/>
		</g>
	</g>
	<g class="st11">
		<g>
			<path d="M677.7,348.5c1,0,1.9,0,2.9,0.2c0.5,0.1,0.7-0.6,0.2-0.7c-1-0.2-2-0.2-3.1-0.2C677.2,347.8,677.2,348.5,677.7,348.5
				L677.7,348.5z"/>
		</g>
	</g>
	<g class="st11">
		<g>
			<path d="M657,353.5c5.4,0,10.6,0.7,16,0.2c0.5,0,0.5-0.8,0-0.8c-5.4,0.5-10.6-0.2-16-0.2C656.5,352.8,656.5,353.5,657,353.5
				L657,353.5z"/>
		</g>
	</g>
	<g class="st11">
		<g>
			<path d="M676.2,353.7c0.9,0,1.7-0.1,2.5,0.1c0.7,0.2,1.4,0.2,2.1,0.2c0.5,0,0.5-0.8,0-0.8c-0.4,0-0.9,0.1-1.3,0
				c-0.4,0-0.7-0.2-1-0.3c-0.7-0.2-1.5,0-2.3,0C675.7,353,675.7,353.7,676.2,353.7L676.2,353.7z"/>
		</g>
	</g>
	<g class="st11">
		<g>
			<path d="M656.8,358.4c2.2,0.2,4.2-0.3,6.3-0.2c2.1,0,4.2,0.5,6.3,0.4c0.5,0,0.5-0.8,0-0.8c-2.1,0.1-4.3-0.3-6.3-0.4
				c-2.1-0.1-4.2,0.4-6.3,0.2C656.4,357.6,656.4,358.3,656.8,358.4L656.8,358.4z"/>
		</g>
	</g>
	<g class="st11">
		<g>
			<path d="M672.6,358.5c0.6,0.1,1.2,0.2,1.8,0.2c0.9,0,1.6,0.1,2.5,0.2c1.4,0.1,3-0.2,4.5-0.2c0.5,0,0.5-0.8,0-0.8
				c-1.4,0-3,0.3-4.4,0.1c-1.4-0.2-2.8,0-4.1-0.3C672.3,357.7,672.1,358.4,672.6,358.5L672.6,358.5z"/>
		</g>
	</g>
	<g class="st11">
		<g>
			<path d="M657.7,362.9c1.2,0,2.4,0,3.6-0.2c0.5-0.1,0.3-0.8-0.2-0.7c-1.1,0.2-2.3,0.2-3.4,0.2
				C657.2,362.1,657.2,362.9,657.7,362.9L657.7,362.9z"/>
		</g>
	</g>
	<g class="st11">
		<g>
			<path d="M665.2,362.7c4.4,0.9,9.1,0.1,13.6,0.2c0.5,0,0.5-0.7,0-0.8c-4.4,0-9.1,0.7-13.4-0.2C665,361.9,664.8,362.6,665.2,362.7
				L665.2,362.7z"/>
		</g>
	</g>
</g>
<g id="Layer_9" class="st0">
	<g id="XMLID_17_" class="st11">
		<g>
			<polygon class="st12" points="683.5,334.5 686.5,347.5 663.5,367.5 654.5,355.5 			"/>
		</g>
		<g>
			<polygon class="st13" points="654.5,355.5 683.5,334.5 686.5,347.5 663.5,367.5 			"/>
		</g>
	</g>
	<g id="XMLID_16_" class="st11">
		<g>
			<polygon class="st12" points="689.5,377.5 689.5,406.5 663.5,396.5 663.5,367.5 			"/>
		</g>
		<g>
			<polygon class="st13" points="663.5,367.5 663.5,396.5 689.5,406.5 689.5,377.5 			"/>
		</g>
	</g>
	<g id="XMLID_15_" class="st11">
		<g>
			<polygon class="st9" points="711.5,356.5 688.2,377 663.5,367.5 686.5,347.5 			"/>
			<polygon class="st12" points="722.5,354.5 712.5,364.5 700.5,376.5 690.5,376.5 701.3,366.3 712.5,356.5 			"/>
			<polygon class="st12" points="712.5,364.5 712.5,382.5 689.5,406.5 689.5,377.5 690.5,376.5 700.5,376.5 			"/>
			<polygon class="st12" points="701.3,366.3 690.5,376.5 689.5,376.5 			"/>
		</g>
		<g>
			<polyline class="st13" points="712.5,364.5 722.5,354.5 712.5,356.5 701.3,366.3 689.5,376.5 690.5,376.5 700.5,376.5 
				712.5,364.5 712.5,382.5 689.5,406.5 689.5,377.5 690.5,376.5 701.3,366.3 711.5,356.5 686.5,347.5 663.5,367.5 688.2,377 
				711.5,356.5 			"/>
		</g>
	</g>
	<g id="XMLID_18_" class="st11">
		<g>
			<path class="st12" d="M699.9,301.5c2.6,3.1,0.7,7.8,0.6,8c-0.8,1.4-1.9,3.5-3,6c-1.2,2.8-1.8,4.2-2,6c-0.1,0.5-0.1,1.2,0,8
				c0,2.2,0.1,3.3-0.6,3.6c-0.9,0.5-2.6-0.6-3.4-1.6c-2.2-2.5-1.2-6.3-1-7c1.9-7.6,3.7-11.7,5-14c0.4-0.7,1.5-2.5,0.8-4
				c-0.6-1.5-2.6-2-2.8-2c-0.2,0-2.2-0.5-3.6,0.6c-0.6,0.4-0.8,0.5-1.4,1.4c-0.5,0.8-1.3,1.2-2,1c-0.9-0.2-1.6-1.6-1-3
				c0.3-0.9,1-2.5,2.6-3.7c3.5-2.8,8-1.4,8.4-1.3C697.4,299.8,698.8,300.2,699.9,301.5z"/>
		</g>
		<g>
			<path class="st14" d="M685.5,304.5c-0.6,1.4,0.1,2.8,1,3c0.7,0.2,1.5-0.2,2-1c0.6-0.9,0.8-1,1.4-1.4c1.5-1.1,3.5-0.7,3.6-0.6
				c0.3,0.1,2.2,0.5,2.8,2c0.6,1.5-0.4,3.3-0.8,4c-1.3,2.3-3.1,6.4-5,14c-0.2,0.7-1.2,4.5,1,7c0.9,1,2.5,2.1,3.4,1.6
				c0.6-0.4,0.6-1.4,0.6-3.6c-0.1-6.9-0.1-7.5,0-8c0.2-1.8,0.8-3.2,2-6c1.1-2.5,2.2-4.6,3-6c0.1-0.2,2-4.9-0.6-8
				c-1.1-1.3-2.5-1.7-3.4-2c-0.4-0.1-5-1.5-8.4,1.3C686.5,302,685.8,303.6,685.5,304.5z"/>
		</g>
	</g>
	<g id="XMLID_19_" class="st11">
		<g>
			<circle class="st12" cx="694.5" cy="338.5" r="3"/>
		</g>
		<g>
			<circle class="st14" cx="694.5" cy="338.5" r="3"/>
		</g>
	</g>
</g>
<g id="Layer_8" class="st0">
	<g id="XMLID_6_" class="st11">
		<g>
			<rect x="686.5" y="349.5" class="st15" width="7" height="14"/>
		</g>
		<g>
			<rect x="686.5" y="349.5" class="st16" width="7" height="14"/>
		</g>
	</g>
	<g id="XMLID_7_" class="st11">
		<g>
			<rect x="692.5" y="344.5" class="st17" width="15" height="19"/>
		</g>
		<g>
			<rect x="692.5" y="344.5" class="st16" width="15" height="19"/>
		</g>
	</g>
	<g id="XMLID_14_" class="st11">
		<g>
			<rect x="708.5" y="356.5" class="st18" width="5" height="7"/>
		</g>
		<g>
			<rect x="708.5" y="356.5" class="st16" width="5" height="7"/>
		</g>
	</g>
	<path class="st19" d="M667.5,342.5c0,0,5,3,11-6l2,6l38-1l-5,23h-28l-5-22h8l1,10c-1.9,0-3.7,0-5.6,0c-0.5,0-0.9,0-1.4,0"/>
	<polyline class="st19" points="698.5,342.5 698.5,352.5 689.5,352.5 691.3,364.5 	"/>
	<polyline class="st19" points="708.5,341.8 708.5,352.5 698.5,352.5 698.5,364.5 	"/>
	<polyline class="st19" points="716.1,352.5 708.5,352.5 707.5,364.5 	"/>
	<polyline class="st19" points="685.5,364.5 678.5,376.5 714.5,376.5 	"/>
	<circle class="st20" cx="680.5" cy="377.5" r="4"/>
	<circle class="st20" cx="714.5" cy="377.5" r="4"/>
</g>
<g id="Layer_7" class="st0">
	<g id="XMLID_2_" class="st11">
		<g>
			<rect x="674.5" y="330.5" class="st21" width="43" height="55"/>
		</g>
		<g>
			<rect x="674.5" y="330.5" class="st22" width="43" height="55"/>
		</g>
	</g>
	<g id="XMLID_3_" class="st11">
		<g>
			<path class="st21" d="M699.6,330.5C699.6,330.5,699.6,330.5,699.6,330.5c-0.1-0.4-0.4-1.1-1.1-1.7c-1.2-1.1-2.7-0.9-2.9-0.8
				c-0.3,0-1.5-0.1-2.5,0.8c-0.7,0.6-1,1.4-1.1,1.7h-0.2h-3.4c0.3-0.7,0.8-1.6,1.7-2.5c2-2.1,4.6-2.4,5.5-2.5c0.7,0,2.5,0.1,4.2,1.3
				c2,1.3,2.9,3.1,3.2,3.8H699.6z"/>
		</g>
		<g>
			<path class="st23" d="M691.9,330.5h-3.4c0.3-0.7,0.8-1.6,1.7-2.5c2-2.1,4.6-2.4,5.5-2.5c0.7,0,2.5,0.1,4.2,1.3
				c2,1.3,2.9,3.1,3.2,3.8h-3.4c0,0,0,0,0-0.1c-0.1-0.4-0.4-1-1-1.6c-1.2-1.1-2.7-0.9-2.9-0.8c-0.3,0-1.5-0.1-2.5,0.8
				c-0.7,0.6-1,1.4-1.1,1.7h7.4"/>
		</g>
	</g>
	<g id="XMLID_4_" class="st11">
		<g>
			<ellipse class="st21" cx="679" cy="389" rx="1.5" ry="3.5"/>
		</g>
		<g>
			<ellipse class="st22" cx="679" cy="389" rx="1.5" ry="3.5"/>
		</g>
	</g>
	<g id="XMLID_5_" class="st11">
		<g>
			<ellipse class="st21" cx="713" cy="389" rx="1.5" ry="3.5"/>
		</g>
		<g>
			<ellipse class="st22" cx="713" cy="389" rx="1.5" ry="3.5"/>
		</g>
	</g>
</g>
<g id="Layer_3" class="st0">
	<g id="XMLID_13_" class="st11">
		<g>
			<path class="st24" d="M687.5,329.5l1,24h-17C671.5,353.5,665.5,334.5,687.5,329.5z"/>
		</g>
		<g>
			<path class="st22" d="M671.5,353.5c0,0-6-19,16-24l1,24H671.5z"/>
		</g>
	</g>
	<g id="XMLID_12_" class="st11">
		<g>
			<path class="st24" d="M671.5,353.5h47c0,22-23,23-23,23C671.5,376.5,671.5,353.5,671.5,353.5z"/>
		</g>
		<g>
			<path class="st22" d="M671.5,353.5c0,0,0,23,24,23c0,0,23-1,23-23H671.5z"/>
		</g>
	</g>
	<path class="st25" d="M718.5,353.5c0,0-2-13,8-10"/>
	<g id="XMLID_11_" class="st11">
		<g>
			<circle class="st24" cx="681" cy="380" r="4.5"/>
		</g>
		<g>
			<circle class="st22" cx="681" cy="380" r="4.5"/>
		</g>
	</g>
	<g id="XMLID_10_" class="st11">
		<g>
			<circle class="st24" cx="708" cy="380" r="4.5"/>
		</g>
		<g>
			<circle class="st22" cx="708" cy="380" r="4.5"/>
		</g>
	</g>
	<g id="XMLID_9_" class="st11">
		<g>
			<circle class="st24" cx="700.5" cy="344.5" r="4"/>
		</g>
		<g>
			<circle class="st26" cx="700.5" cy="344.5" r="4"/>
		</g>
	</g>
	<g id="XMLID_8_" class="st11">
		<g>
			<path class="st24" d="M700.5,348.5c0,0,6-1,4,5h-8C696.5,353.5,694.5,347.5,700.5,348.5z"/>
		</g>
		<g>
			<path class="st26" d="M696.5,353.5c0,0-2-6,4-5c0,0,6-1,4,5H696.5z"/>
		</g>
	</g>
</g>
</svg>
