<svg xmlns="http://www.w3.org/2000/svg" viewBox="0 0 132 132"><defs><style>.cls-1{fill:#8be28f;}.cls-2,.cls-4,.cls-5{fill:none;}.cls-2{stroke:#f90808;}.cls-2,.cls-4,.cls-5,.cls-6,.cls-7,.cls-8{stroke-miterlimit:10;}.cls-3,.cls-6,.cls-7,.cls-8{fill:#fcfafa;}.cls-4,.cls-5,.cls-6,.cls-7,.cls-8{stroke:#000;}.cls-4,.cls-6{stroke-width:0.25px;}.cls-5,.cls-8{stroke-width:0.22px;}.cls-7{stroke-width:0.38px;}.cls-9{fill:#020202;}</style></defs><title>plane2_icon</title><g id="Layer_1" data-name="Layer 1"><circle class="cls-1" cx="66" cy="66" r="65.5"/><circle class="cls-2" cx="66" cy="66" r="65.5"/></g><g id="Layer_11" data-name="Layer 11"><path class="cls-3" d="M718,356c-14.26,4.07-22.54,3.73-27,3-1.63-.27-8.58-1.54-16-3l-5-1c-2.71-1.18-4.82-3.09-4.75-5,.12-3.42,7.15-4.88,7.75-5a15.66,15.66,0,0,1,9,1c3.27.28,6.61.61,10,1,7.3.83,14.31,1.85,21,3l12-5c.52-.17.85-.17,1,0,.36.39-.31,1.73-2,4a23.84,23.84,0,0,0-4,4A22.61,22.61,0,0,0,718,356Z" transform="translate(-630 -293)"/><path class="cls-4" d="M670,355c-2.71-1.18-4.82-3.09-4.75-5,.12-3.42,7.15-4.88,7.75-5a15.66,15.66,0,0,1,9,1c3.27.28,6.61.61,10,1,7.3.83,14.31,1.85,21,3l12-5c.52-.17.85-.17,1,0,.36.39-.31,1.73-2,4a23.84,23.84,0,0,0-4,4,22.61,22.61,0,0,0-2,3c-14.26,4.07-22.54,3.73-27,3-1.63-.27-8.58-1.54-16-3Z" transform="translate(-630 -293)"/><path class="cls-3" d="M705.7,345a24.46,24.46,0,0,1-5.7,3l-8-1,16.82-7.4a1.47,1.47,0,0,1,.92.81C710.25,341.82,707,344.07,705.7,345Z" transform="translate(-630 -293)"/><path class="cls-5" d="M692,347l16.82-7.4a1.47,1.47,0,0,1,.92.81c.51,1.41-2.7,3.66-4,4.61a24.46,24.46,0,0,1-5.7,3Z" transform="translate(-630 -293)"/><path class="cls-3" d="M697.75,356.94A54.85,54.85,0,0,1,701,364c.91,2.41,4.87,13,2,15-.67.47-2,.68-5-1q-7.43-11.16-14.84-22.31Z" transform="translate(-630 -293)"/><path class="cls-4" d="M683.16,355.69Q690.59,366.84,698,378c3,1.68,4.33,1.47,5,1,2.87-2-1.09-12.59-2-15a54.85,54.85,0,0,0-3.25-7.06Z" transform="translate(-630 -293)"/><path class="cls-6" d="M700,344" transform="translate(-630 -293)"/><ellipse class="cls-7" cx="674.5" cy="346.5" rx="0.5" ry="1.5" transform="translate(-569.38 498.66) rotate(-63.14)"/><circle class="cls-8" cx="53.5" cy="56.5" r="0.5"/><circle class="cls-8" cx="75.5" cy="60.5" r="0.5"/><circle class="cls-8" cx="69.5" cy="59.5" r="0.5"/><circle class="cls-8" cx="63.5" cy="58.5" r="0.5"/><circle class="cls-8" cx="58.5" cy="57.5" r="0.5"/><path class="cls-3" d="M720,359l-5-6s4,0,4,1A43.31,43.31,0,0,0,720,359Z" transform="translate(-630 -293)"/><path class="cls-5" d="M715,353l5,6a43.31,43.31,0,0,1-1-5C719,353,715,353,715,353Z" transform="translate(-630 -293)"/><polygon class="cls-3" points="85 55 85.58 56 84 56.5 84 54 85 55"/><polygon class="cls-5" points="84 56.5 84 54 85 55 85.58 56 84 56.5"/><path class="cls-9" d="M665.79,348.5c.45-.51,1.26-.18,1.4-.13A2.84,2.84,0,0,1,669,351a3.32,3.32,0,0,1-1.4,2.64S663.58,351,665.79,348.5Z" transform="translate(-630 -293)"/><path class="cls-4" d="M665.79,348.5c.45-.51,1.26-.18,1.4-.13A2.84,2.84,0,0,1,669,351a3.32,3.32,0,0,1-1.4,2.64S663.58,351,665.79,348.5Z" transform="translate(-630 -293)"/></g></svg>