<svg xmlns="http://www.w3.org/2000/svg" viewBox="0 0 132 132"><defs><style>.cls-1{fill:#8be28f;}.cls-2{fill:none;stroke:#f90808;}.cls-2,.cls-3{stroke-miterlimit:10;}.cls-3{fill:#fff;stroke:#000;}</style></defs><title>question</title><g id="Layer_1" data-name="Layer 1"><circle class="cls-1" cx="66" cy="66" r="65.5"/><circle class="cls-2" cx="66" cy="66" r="65.5"/></g><g id="Layer_10" data-name="Layer 10"><polygon class="cls-3" points="24.5 43.5 24.5 73.5 40.5 73.5 49.5 81.5 49.5 72.5 54.5 72.5 54.5 43.5 24.5 43.5"/><path class="cls-3" d="M715.5,365.5h-11a17.38,17.38,0,0,1-11-26,24.87,24.87,0,0,1,17-9,24.33,24.33,0,0,1,15,4,23.42,23.42,0,0,1,5,28s-4,9-16,14C714.5,376.5,718.5,368.5,715.5,365.5Z" transform="translate(-630 -293)"/><path d="M707.58,345c.15-3.31,4.72-7.1,7.6-3.92,2.15,2.39-.53,5.66-2.15,7.35a14.75,14.75,0,0,0-2.5,3.51c-.85,1.62-.2,1.92.05,3.89.13.95,1.63,1,1.5,0-.25-1.92-.51-2.89.67-4.67,1.06-1.59,2.64-2.7,3.63-4.34,1.27-2.11,1.63-4.87-.14-6.8-3.89-4.22-9.94.26-10.16,5,0,1,1.46,1,1.5,0Z" transform="translate(-630 -293)"/><path d="M711.5,361.58a.75.75,0,0,0,0-1.5.75.75,0,0,0,0,1.5Z" transform="translate(-630 -293)"/><path d="M657.67,342.94a16.47,16.47,0,0,0,3.05-.34,9.32,9.32,0,0,1,3,.33,7.73,7.73,0,0,0,4-.22c.42-.22,0-.87-.38-.65-1.17.62-3.22,0-4.39-.21-1.8-.32-3.5.37-5.29.34a.38.38,0,0,0,0,.75Z" transform="translate(-630 -293)"/><path d="M672.38,342.76h5.45a6.78,6.78,0,0,0,1.56,0c.17,0,1.24-.7,1.34-.62.38.3.92-.23.54-.53-.93-.71-1.64.32-2.68.43a58.47,58.47,0,0,1-6.21,0,.38.38,0,0,0,0,.75Z" transform="translate(-630 -293)"/><path d="M660,348.51c3.28-.11,6.5-.13,9.76,0a42.35,42.35,0,0,1,4.53.35c1,.14.47.4,1.6.18.48-.09.28-.82-.19-.72-.75.14-1.5-.38-2.22-.52a33.61,33.61,0,0,0-4.26,0c-3.08-.18-6.12-.1-9.22,0a.38.38,0,0,0,0,.75Z" transform="translate(-630 -293)"/><path d="M677.67,348.54a15.63,15.63,0,0,1,2.9.15c.47.1.67-.63.2-.72a16.09,16.09,0,0,0-3.1-.18.38.38,0,0,0,0,.75Z" transform="translate(-630 -293)"/><path d="M657,353.54c5.38,0,10.57.71,16,.17.48,0,.48-.8,0-.75-5.41.54-10.61-.17-16-.17a.38.38,0,0,0,0,.75Z" transform="translate(-630 -293)"/><path d="M676.17,353.71a7.46,7.46,0,0,1,2.54.14,6.27,6.27,0,0,0,2.12.19.38.38,0,0,0,0-.75,10,10,0,0,1-1.34,0c-.37-.05-.68-.24-1-.32a9.66,9.66,0,0,0-2.28,0,.38.38,0,0,0,0,.75Z" transform="translate(-630 -293)"/><path d="M656.83,358.38c2.18.19,4.16-.28,6.32-.25s4.23.48,6.35.41a.38.38,0,0,0,0-.75c-2,.06-4.27-.33-6.35-.41s-4.16.44-6.32.25c-.48-.05-.47.7,0,.75Z" transform="translate(-630 -293)"/><path d="M672.57,358.53a8.89,8.89,0,0,0,1.79.15,16.2,16.2,0,0,1,2.5.2c1.45.14,3-.17,4.47-.17a.38.38,0,0,0,0-.75,34.46,34.46,0,0,1-4.42.13c-1.38-.19-2.76,0-4.14-.28-.48-.09-.68.63-.2.72Z" transform="translate(-630 -293)"/><path d="M657.67,362.88a18.82,18.82,0,0,0,3.6-.19c.47-.08.27-.81-.2-.72a18.41,18.41,0,0,1-3.4.16.38.38,0,0,0,0,.75Z" transform="translate(-630 -293)"/><path d="M665.23,362.69c4.44.9,9.1.14,13.6.19a.38.38,0,0,0,0-.75c-4.41-.05-9.05.72-13.4-.16-.47-.09-.67.63-.2.72Z" transform="translate(-630 -293)"/></g></svg>